<?xml version="1.0" encoding="utf-8"?>
<!-- Generator: Adobe Illustrator 25.1.0, SVG Export Plug-In . SVG Version: 6.00 Build 0)  -->
<svg version="1.1" id="Camada_1" xmlns="http://www.w3.org/2000/svg" xmlns:xlink="http://www.w3.org/1999/xlink" x="0px" y="0px"
	 viewBox="0 0 389.9 97.2" style="enable-background:new 0 0 389.9 97.2;" xml:space="preserve">
<style type="text/css">
	.st0{stroke:#000000;stroke-width:3;stroke-miterlimit:10;}
	.st1{fill:#4F9F3C;}
	.st2{fill:#FFFFFF;}
</style>
<path class="st0" d="M15.6,92.7H5.1V11.2h10.5v35c1.4-2.6,3.7-4.8,6.8-6.6c3.1-1.8,6.8-2.6,11.1-2.6c7.9,0,14,2.7,18.4,8
	c4.4,5.3,6.5,12.1,6.5,20.4c0,8.3-2.3,15.2-6.8,20.7c-4.5,5.4-10.7,8.2-18.5,8.2c-8.1,0-14-3.1-17.6-9.4V92.7z M43.2,79.4
	c2.9-3.5,4.4-8.2,4.4-14.1c0-5.9-1.4-10.5-4.3-13.9c-2.9-3.4-6.8-5.1-11.7-5.1c-4.7,0-8.6,1.7-11.6,5.2c-3,3.5-4.5,8.1-4.5,13.9
	c0,5.8,1.5,10.5,4.5,14c3,3.6,6.9,5.4,11.6,5.4C36.4,84.7,40.3,83,43.2,79.4z"/>
<path class="st0" d="M71.7,23.4c-1.5-1.5-2.2-3.2-2.2-5.4c0-2.1,0.7-3.9,2.2-5.4c1.5-1.5,3.2-2.3,5.4-2.3c2.1,0,3.9,0.7,5.4,2.2
	c1.5,1.5,2.3,3.3,2.3,5.5c0,2.1-0.8,3.9-2.3,5.4c-1.5,1.5-3.3,2.2-5.4,2.2C75,25.6,73.2,24.8,71.7,23.4z M82.4,92.7H71.9V38.5h10.5
	V92.7z"/>
<path class="st0" d="M95.3,78.6l9.6-3.4c0.4,2.9,1.7,5.4,3.8,7.3c2.2,1.9,5.1,2.9,8.8,2.9c2.9,0,5.1-0.7,6.8-2.1
	c1.7-1.4,2.5-3.1,2.5-5.1c0-3.6-2.3-5.9-7-7l-9.2-2c-4.2-0.9-7.5-2.7-9.9-5.4c-2.4-2.7-3.6-6-3.6-9.8c0-4.7,1.9-8.7,5.7-12.1
	c3.8-3.4,8.3-5.1,13.6-5.1c3.5,0,6.5,0.5,9.2,1.5c2.7,1,4.8,2.3,6.3,4c1.5,1.7,2.6,3.2,3.4,4.6c0.7,1.4,1.3,2.9,1.7,4.4l-9.4,3.5
	c-0.2-0.9-0.4-1.8-0.8-2.6c-0.4-0.9-1-1.8-1.7-2.9c-0.8-1.1-1.9-1.9-3.4-2.5c-1.5-0.6-3.3-1-5.3-1c-2.6,0-4.8,0.7-6.5,2.1
	c-1.7,1.4-2.5,3.1-2.5,5.1c0,3.5,2.1,5.6,6.2,6.5l8.8,1.9c4.8,1.1,8.5,3,11.1,5.8c2.6,2.8,3.9,6.3,3.9,10.3c0,4.3-1.7,8.1-5.2,11.6
	c-3.5,3.5-8.4,5.2-14.6,5.2c-6.7,0-11.9-1.7-15.7-5C98,86.1,95.9,82.5,95.3,78.6z"/>
<path class="st0" d="M173.5,46.6c-4.6,0-8.5,1.7-11.7,5c-3.2,3.3-4.8,8-4.8,14c0,5.9,1.6,10.6,4.8,14c3.2,3.4,7.1,5.1,11.8,5.1
	c4.5,0,7.9-1.1,10.3-3.4c2.4-2.3,4-4.8,4.8-7.8l9.4,4.1c-1.5,4.5-4.3,8.4-8.5,11.8s-9.5,5.1-15.9,5.1c-7.9,0-14.4-2.7-19.6-8.2
	c-5.2-5.5-7.8-12.4-7.8-20.6c0-8.4,2.6-15.3,7.8-20.7c5.2-5.4,11.7-8.1,19.5-8.1c6.6,0,12,1.7,16.1,5.1c4.1,3.4,6.8,7.4,8.1,12.2
	l-9.6,4.1c-0.8-3.2-2.4-5.9-4.7-8.1C181,47.8,177.7,46.6,173.5,46.6z"/>
<path class="st0" d="M206.5,78.2c0-4.7,1.5-8.4,4.5-11.2s7-4.6,11.9-5.2l14.6-2.1c2.8-0.4,4.2-1.7,4.2-4.1c0-2.9-1-5.2-2.9-7
	c-2-1.8-4.9-2.7-8.8-2.7c-3.6,0-6.5,1-8.6,3c-2.1,2-3.3,4.6-3.7,7.9l-10.1-2.4c0.5-5.2,2.9-9.4,7.1-12.7c4.2-3.3,9.2-4.9,15.1-4.9
	c7.7,0,13.3,1.9,17,5.6c3.7,3.7,5.5,8.5,5.5,14.3v27.1c0,3.2,0.2,6.2,0.7,8.9h-10.4c-0.4-2.3-0.6-4.7-0.6-7.3
	c-1.5,2.4-3.7,4.5-6.6,6.3c-2.9,1.8-6.5,2.7-10.9,2.7c-5.3,0-9.7-1.6-13.1-4.8S206.5,82.6,206.5,78.2z M226.1,85.5
	c4.7,0,8.5-1.3,11.4-3.8c2.9-2.6,4.3-6.6,4.3-12.2V67l-16.6,2.5c-2.4,0.4-4.3,1.2-5.7,2.6c-1.4,1.4-2.1,3.2-2.1,5.5
	c0,2.1,0.8,3.9,2.4,5.5C221.4,84.7,223.5,85.5,226.1,85.5z"/>
<path class="st0" d="M283,21.4v17.1h11.7v9.6H283v28.2c0,2.6,0.6,4.4,1.7,5.6c1.2,1.2,3.1,1.8,5.8,1.8c1.6,0,3-0.1,4.2-0.5v9
	c-1.8,0.7-4.2,1-7.2,1c-4.7,0-8.3-1.4-11-4.1c-2.7-2.7-4.1-6.5-4.1-11.4V48.1h-10.4v-9.6h2.9c2.8,0,4.9-0.8,6.3-2.3
	c1.4-1.5,2.1-3.5,2.1-6v-8.8H283z"/>
<path class="st0" d="M311.6,45c5.2-5.4,11.8-8.2,19.9-8.2c8,0,14.7,2.7,19.9,8.2c5.2,5.4,7.8,12.3,7.8,20.6c0,8.3-2.6,15.2-7.8,20.7
	c-5.2,5.4-11.8,8.2-19.9,8.2s-14.8-2.7-19.9-8.2c-5.2-5.4-7.8-12.3-7.8-20.7C303.8,57.3,306.4,50.5,311.6,45z M319.5,79.8
	c3.3,3.4,7.3,5.1,12,5.1s8.7-1.7,12-5.1c3.3-3.4,4.9-8.2,4.9-14.3c0-6-1.6-10.7-4.9-14.1c-3.3-3.4-7.3-5.1-12-5.1s-8.7,1.7-12,5.1
	c-3.3,3.4-4.9,8.1-4.9,14.1C314.6,71.7,316.2,76.4,319.5,79.8z"/>
<g>
	<circle class="st1" cx="368.2" cy="23" r="18.9"/>
</g>
<g>
	<circle class="st2" cx="368.2" cy="23" r="4.9"/>
</g>
</svg>
