<svg id="Camada_1" data-name="Camada 1" xmlns="http://www.w3.org/2000/svg" viewBox="0 0 1324.71 1346.43"><defs><style>.cls-1{fill:#d7e4a8;}.cls-2{fill:none;stroke:#1d1d1b;stroke-miterlimit:10;stroke-width:40px;}.cls-3{fill:#1d1d1b;}</style></defs><circle class="cls-1" cx="848.58" cy="870.3" r="476.01"/><circle class="cls-2" cx="640.65" cy="640.65" r="620.65"/><path class="cls-3" d="M987,1231.15l-206-216c-9.74-10.22-27-3.33-27,10.8v194.43A15.65,15.65,0,0,1,738.35,1236h-7.7A15.65,15.65,0,0,1,715,1220.35V741.65A15.65,15.65,0,0,1,730.65,726h7.7A15.65,15.65,0,0,1,754,741.65V929.91c0,14.36,17.71,21.14,27.3,10.45L968.89,731.2a15.66,15.66,0,0,1,11.65-5.2h9.32a15.65,15.65,0,0,1,11.66,26.08L809.14,967.31a15.64,15.64,0,0,0,.35,21.23l211,221A15.65,15.65,0,0,1,1009.2,1236H998.31A15.62,15.62,0,0,1,987,1231.15Z" transform="translate(-370.8 -341.3)"/><path class="cls-3" d="M1367,1216.5h0a19.5,19.5,0,0,1-19.5,19.5h-229a19.5,19.5,0,0,1-19.5-19.5v-12.76a19.55,19.55,0,0,1,3.73-11.47L1288.38,937a19.5,19.5,0,0,0-15.77-31H1125.5a19.5,19.5,0,0,1-19.5-19.5v-1a19.5,19.5,0,0,1,19.5-19.5h215a19.5,19.5,0,0,1,19.5,19.5v14.1a19.51,19.51,0,0,1-3.71,11.44l-184.75,255a19.5,19.5,0,0,0,15.79,30.94H1347.5A19.5,19.5,0,0,1,1367,1216.5Z" transform="translate(-370.8 -341.3)"/></svg>